<?xml version="1.0" standalone="no"?>
<!DOCTYPE svg PUBLIC "-//W3C//DTD SVG 1.1//EN" "http://www.w3.org/Graphics/SVG/1.1/DTD/svg11.dtd">
<svg version="1.1" xmlns="http://www.w3.org/2000/svg" viewBox="0 0 548.2705907063382 625.6404890770319" width="1644.8117721190147" height="1876.921467231096"><!-- svg-source:excalidraw --><metadata></metadata><defs><style class="style-fonts">
      </style></defs><g stroke-linecap="round" transform="translate(126.7840742000808 18.289949543611215) rotate(0 97.80666214256917 94.01117973106625)"><path d="M168.28 29.98 C177.76 37.37, 186.68 50.33, 191.34 61.29 C196 72.26, 197.1 83.66, 196.24 95.77 C195.38 107.88, 191.33 122.55, 186.17 133.95 C181.02 145.35, 174.23 155.95, 165.31 164.19 C156.4 172.44, 144.27 179.17, 132.68 183.41 C121.08 187.64, 108.56 190.47, 95.77 189.6 C82.98 188.73, 67.62 183.46, 55.93 178.2 C44.24 172.95, 34.01 166.58, 25.62 158.08 C17.24 149.57, 10.15 138.2, 5.65 127.19 C1.14 116.18, -2.22 104.1, -1.42 92 C-0.62 79.9, 4.76 65.98, 10.44 54.6 C16.12 43.23, 23.67 31.86, 32.66 23.75 C41.66 15.65, 52.65 9.81, 64.42 5.95 C76.2 2.08, 90.68 0.33, 103.3 0.56 C115.91 0.79, 126.5 -1.01, 140.13 7.33 C153.76 15.67, 176.2 39.48, 185.07 50.6 C193.95 61.71, 194.71 73.59, 193.36 74.01 M105.84 0.26 C117.58 -0.59, 129.53 5.47, 140.39 11.37 C151.24 17.26, 162.85 26.24, 170.96 35.62 C179.08 45, 184.92 56.98, 189.06 67.66 C193.2 78.33, 196.62 88.06, 195.8 99.66 C194.98 111.27, 189.64 125.95, 184.14 137.3 C178.64 148.65, 172.52 160.34, 162.8 167.74 C153.09 175.14, 138.33 178.12, 125.85 181.69 C113.38 185.27, 100.03 190.27, 87.95 189.22 C75.88 188.16, 64.55 180.65, 53.41 175.35 C42.27 170.04, 28.77 166.3, 21.11 157.38 C13.45 148.47, 11.39 133.55, 7.46 121.84 C3.53 110.13, -2.96 98.77, -2.46 87.12 C-1.96 75.46, 4.54 62.84, 10.46 51.92 C16.38 41, 23.48 29.5, 33.07 21.62 C42.67 13.74, 56.18 7.75, 68.03 4.63 C79.87 1.52, 98.13 3.58, 104.15 2.92 C110.16 2.26, 104.12 -0.29, 104.12 0.65" stroke="#1e1e1e" stroke-width="4" fill="none"></path></g><g stroke-linecap="round"><g transform="translate(244.15206877116452 204.56054789274242) rotate(0 4.324222257202564 43.2010244682121)"><path d="M-1.08 0.2 C0.38 5.02, 6.72 15.62, 8.52 30.34 C10.32 45.07, 9.47 78.89, 9.73 88.56 M3.53 -2.16 C4.72 1.62, 6.02 11.25, 6.79 25.64 C7.56 40.03, 7.42 74.57, 8.13 84.19" stroke="#1e1e1e" stroke-width="4" fill="none"></path></g></g><mask></mask><g stroke-linecap="round"><g transform="translate(251.1591132231697 226.74952199075824) rotate(0 110.77458626213638 -60.10610046219739)"><path d="M0.38 2.31 C19.43 1.79, 82.35 9.99, 113.22 -3.5 C144.09 -17, 167.36 -58.97, 185.61 -78.67 C203.87 -98.37, 216.98 -114.07, 222.74 -121.71 M-2.87 1.1 C16.13 1.09, 81.01 12.94, 112.22 0.13 C143.43 -12.69, 165.7 -54.72, 184.4 -75.79 C203.1 -96.86, 219.08 -118.32, 224.41 -126.3" stroke="#1e1e1e" stroke-width="4" fill="none"></path></g></g><mask></mask><g stroke-linecap="round"><g transform="translate(248.23951136816777 226.74952199075824) rotate(0 -84.96010794596077 33.194651206091464)"><path d="M1.96 -0.29 C-14.7 6.22, -71.7 29.47, -100.3 41.06 C-128.89 52.66, -158.44 64.75, -169.61 69.31 M-0.42 -2.92 C-17.36 2.69, -73.57 26.12, -102.14 37.43 C-130.72 48.74, -161.25 60.67, -171.88 64.95" stroke="#1e1e1e" stroke-width="4" fill="none"></path></g></g><mask></mask><g stroke-linecap="round"><g transform="translate(81.23828526205034 295.6521257688065) rotate(0 60.81742173064458 14.79650575905373)"><path d="M1.45 0.53 C14.76 3.39, 59.51 15.05, 79.74 19.75 C99.98 24.44, 115.99 27.06, 122.84 28.71 M-1.21 -1.65 C13.06 2.79, 64.77 17.2, 85.37 22.69 C105.98 28.17, 116.37 29.66, 122.42 31.25" stroke="#1e1e1e" stroke-width="4" fill="none"></path></g></g><mask></mask><g stroke-linecap="round" transform="translate(208.5746243709118 319.82437163363204) rotate(327.5113746488469 12.653000655757296 31.788927355479018)"><path d="M12.69 -1.08 C14.7 -2.43, 16.65 0.37, 18.65 4.88 C20.64 9.39, 23.79 19.13, 24.68 26 C25.58 32.87, 25.28 40.56, 24.01 46.1 C22.75 51.63, 19.51 56.52, 17.1 59.23 C14.69 61.93, 12.25 63.81, 9.55 62.32 C6.85 60.83, 2.36 55.97, 0.91 50.29 C-0.53 44.61, 0.05 35.21, 0.87 28.26 C1.7 21.3, 2.43 11.77, 5.86 8.55 C9.29 5.33, 18.01 6, 21.45 8.94 C24.89 11.89, 26.85 26.22, 26.5 26.21 M7.91 -1.25 C9.75 -2.77, 13.91 -1.07, 16.86 2.31 C19.81 5.69, 23.92 12.39, 25.6 19.01 C27.29 25.63, 27.94 35.27, 26.96 42.04 C25.99 48.81, 22.82 56.14, 19.77 59.65 C16.71 63.16, 11.49 64.12, 8.62 63.08 C5.75 62.05, 3.83 58.33, 2.54 53.43 C1.26 48.53, 0.73 41, 0.91 33.68 C1.08 26.36, 2.05 15.12, 3.6 9.51 C5.14 3.91, 8.8 1.06, 10.17 0.06 C11.54 -0.93, 11.96 3.2, 11.83 3.55" stroke="#1e1e1e" stroke-width="4" fill="none"></path></g><g stroke-linecap="round" transform="translate(455.5366338479207 14.592849872384932) rotate(320.48153818647404 24.06407350092468 54.46079792314583)"><path d="M12.03 0 C19.04 -2.49, 24.35 1.09, 36.1 0 M12.03 0 C18.48 -0.7, 25.93 0.41, 36.1 0 M36.1 0 C45.1 -2.01, 51.64 3.3, 48.13 12.03 M36.1 0 C42.74 4.45, 45.19 4.71, 48.13 12.03 M48.13 12.03 C49.56 39.62, 52.52 71.57, 48.13 96.89 M48.13 12.03 C45.83 35.02, 45.53 60.87, 48.13 96.89 M48.13 96.89 C47.6 107.74, 43.14 108.66, 36.1 108.92 M48.13 96.89 C51.45 105.34, 44.07 108.53, 36.1 108.92 M36.1 108.92 C30.09 106.35, 23.33 106.85, 12.03 108.92 M36.1 108.92 C30.91 110.1, 25.31 108.15, 12.03 108.92 M12.03 108.92 C1.7 109.06, 3.9 108.44, 0 96.89 M12.03 108.92 C-0.14 109.81, 0.19 108.46, 0 96.89 M0 96.89 C2.69 62.95, -1.07 33.01, 0 12.03 M0 96.89 C-0.22 71.39, 0.75 47.09, 0 12.03 M0 12.03 C-3.23 5.13, 2.41 0.08, 12.03 0 M0 12.03 C-2.3 1.08, 6.77 -1.15, 12.03 0" stroke="#1e1e1e" stroke-width="4" fill="none"></path></g><g stroke-linecap="round" transform="translate(458.2610405841151 13.496168382958558) rotate(320.48153818647404 25.330603685184087 55.220716033701365)"><path d="M12.67 0 C21.26 1.47, 34.89 2.44, 38 0 M12.67 0 C16.51 0.02, 24.19 0.51, 38 0 M38 0 C47.55 1.68, 47.24 6.07, 50.66 12.67 M38 0 C45.53 -2.07, 52.54 2.16, 50.66 12.67 M50.66 12.67 C47.05 37.87, 51.77 56.61, 50.66 97.78 M50.66 12.67 C51.33 31.76, 50.54 50.15, 50.66 97.78 M50.66 97.78 C53.19 107.49, 43.65 111.25, 38 110.44 M50.66 97.78 C52.67 109.71, 45.35 113.61, 38 110.44 M38 110.44 C31.55 113.67, 28.56 107.16, 12.67 110.44 M38 110.44 C31.79 112.57, 25.83 110.25, 12.67 110.44 M12.67 110.44 C4.84 113.09, 3.79 109.06, 0 97.78 M12.67 110.44 C8.75 112.36, 0.6 105.11, 0 97.78 M0 97.78 C0.15 74.79, -1.6 44.32, 0 12.67 M0 97.78 C0.76 74.11, -0.09 49.39, 0 12.67 M0 12.67 C-3.63 4.41, 6.01 -1.54, 12.67 0 M0 12.67 C0.57 4.25, 7.36 4.14, 12.67 0" stroke="#1e1e1e" stroke-width="4" fill="none"></path></g><g stroke-linecap="round" transform="translate(450.27595973431016 78.43374775665359) rotate(0 12.262327791008829 11.678407420008227)"><path d="M11.75 -0.6 C14.48 -0.76, 18.58 0.78, 20.64 2.36 C22.7 3.94, 23.78 6.25, 24.09 8.88 C24.4 11.52, 23.92 15.72, 22.51 18.15 C21.09 20.58, 18.02 22.64, 15.61 23.46 C13.21 24.28, 10.35 23.92, 8.1 23.05 C5.86 22.19, 3.58 20.34, 2.15 18.27 C0.72 16.2, -0.81 13.38, -0.48 10.65 C-0.15 7.91, 1.8 3.77, 4.12 1.86 C6.43 -0.06, 11.48 -0.6, 13.42 -0.85 C15.36 -1.11, 15.74 0.03, 15.76 0.33 M18.28 0.8 C20.94 1.78, 23.57 5.04, 24.37 7.51 C25.18 9.97, 24.06 13.21, 23.12 15.61 C22.17 18, 20.97 20.56, 18.7 21.88 C16.43 23.2, 12.01 23.92, 9.48 23.53 C6.95 23.13, 5.04 21.12, 3.53 19.51 C2.02 17.89, 0.48 16.13, 0.43 13.84 C0.37 11.55, 1.57 8.07, 3.2 5.78 C4.83 3.49, 7.88 0.67, 10.21 0.09 C12.53 -0.49, 15.97 2.31, 17.17 2.3 C18.38 2.3, 17.62 0.07, 17.44 0.07" stroke="none" stroke-width="0" fill="#ffffff"></path><path d="M8.42 0.76 C10.67 -0.15, 14.47 0.6, 16.89 1.5 C19.32 2.39, 21.58 4.11, 22.99 6.11 C24.4 8.11, 25.62 11.17, 25.34 13.48 C25.06 15.79, 23.32 18.18, 21.31 19.98 C19.29 21.78, 16.2 24.29, 13.28 24.28 C10.35 24.27, 6.03 21.8, 3.73 19.94 C1.43 18.08, -0.21 15.26, -0.53 13.11 C-0.86 10.95, 0.1 9.03, 1.79 7 C3.48 4.97, 7.75 2.07, 9.62 0.93 C11.5 -0.21, 13.06 0.05, 13.05 0.15 M16.76 0.25 C18.81 0.84, 20.02 2.86, 21.16 5.07 C22.3 7.27, 23.5 11.14, 23.59 13.48 C23.68 15.82, 23.34 17.31, 21.71 19.09 C20.07 20.87, 16.48 24, 13.78 24.15 C11.09 24.31, 7.66 21.58, 5.52 20.02 C3.38 18.46, 1.49 17.18, 0.94 14.78 C0.39 12.38, 1.16 7.87, 2.21 5.62 C3.25 3.37, 5.19 2.35, 7.23 1.28 C9.28 0.22, 13.01 -0.69, 14.49 -0.77 C15.98 -0.84, 16.15 0.46, 16.14 0.82" stroke="#1e1e1e" stroke-width="4" fill="none"></path></g><g stroke-linecap="round" transform="translate(487.64686347833685 32.304038447621224) rotate(349.5792876032062 14.5980092750101 15.473889831510917)"><path d="M14.49 0.44 C17.58 0.34, 22.5 1.41, 24.97 3.56 C27.44 5.7, 28.88 10.1, 29.33 13.33 C29.78 16.56, 29.42 20.03, 27.67 22.95 C25.92 25.87, 21.8 29.66, 18.83 30.83 C15.85 32.01, 12.61 31.38, 9.83 29.99 C7.05 28.6, 3.88 25.42, 2.14 22.49 C0.4 19.57, -1.21 15.62, -0.61 12.46 C-0.02 9.3, 2.83 5.65, 5.69 3.55 C8.56 1.46, 14.7 0.27, 16.57 -0.13 C18.44 -0.53, 16.88 0.92, 16.91 1.14 M15.7 1.21 C18.77 0.59, 22.6 0.47, 24.7 2.27 C26.79 4.06, 27.7 8.4, 28.28 12.01 C28.85 15.62, 29.62 21.12, 28.15 23.95 C26.68 26.78, 22.48 28.04, 19.46 28.97 C16.44 29.9, 12.89 30.52, 10.04 29.55 C7.18 28.58, 4.2 25.71, 2.33 23.17 C0.46 20.62, -1.61 17.51, -1.17 14.26 C-0.74 11.01, 2.21 5.84, 4.94 3.68 C7.67 1.51, 13.45 1.94, 15.2 1.29 C16.95 0.63, 15.79 -0.42, 15.44 -0.25" stroke="none" stroke-width="0" fill="#ffffff"></path><path d="M18.57 0.33 C21.49 0.92, 25.91 4.17, 27.52 6.87 C29.12 9.57, 28.69 13.11, 28.22 16.52 C27.75 19.93, 26.82 24.8, 24.7 27.33 C22.57 29.85, 18.49 31.65, 15.44 31.67 C12.4 31.69, 8.84 29.39, 6.42 27.44 C4.01 25.49, 1.76 23.14, 0.97 19.98 C0.17 16.83, 0.31 11.63, 1.64 8.52 C2.98 5.4, 5.4 2.39, 8.98 1.29 C12.55 0.19, 20.57 1.34, 23.09 1.93 C25.61 2.52, 24.23 4.42, 24.11 4.86 M20.81 0.19 C23.76 1.38, 26.6 6.51, 27.82 9.68 C29.03 12.86, 28.9 16.4, 28.09 19.22 C27.28 22.04, 25.38 24.65, 22.94 26.62 C20.5 28.6, 16.62 31.18, 13.46 31.08 C10.3 30.98, 5.96 28.24, 3.98 26.02 C2 23.79, 1.63 21, 1.57 17.73 C1.5 14.45, 2.14 9.02, 3.6 6.38 C5.06 3.75, 7.44 2.88, 10.33 1.92 C13.22 0.96, 19.27 0.81, 20.93 0.65 C22.6 0.49, 20.45 0.54, 20.33 0.96" stroke="#1e1e1e" stroke-width="4" fill="none"></path></g><g stroke-linecap="round" transform="translate(10 296.8199665108074) rotate(0 240.2832326666694 159.41026128311228)"><path d="M32 0 C115.46 -1.18, 203.12 0.6, 448.57 0 M32 0 C120.69 -1.95, 208.39 -2.48, 448.57 0 M448.57 0 C472.1 -3.23, 478.06 14.01, 480.57 32 M448.57 0 C474.16 -2.21, 480.24 13.77, 480.57 32 M480.57 32 C480.43 92.86, 483.08 153.11, 480.57 286.82 M480.57 32 C483.79 114.03, 483 197.67, 480.57 286.82 M480.57 286.82 C478.46 306.64, 471.92 318.2, 448.57 318.82 M480.57 286.82 C478.08 306.26, 469.38 318.19, 448.57 318.82 M448.57 318.82 C354.53 319.31, 263.08 318.86, 32 318.82 M448.57 318.82 C316.9 315.54, 185.35 314.24, 32 318.82 M32 318.82 C6.91 315.67, -3.49 311.98, 0 286.82 M32 318.82 C11.47 320.24, -4 309.55, 0 286.82 M0 286.82 C2.99 193.96, 3.19 109.7, 0 32 M0 286.82 C-1.01 187.23, -1.05 86.91, 0 32 M0 32 C-2.4 7.05, 13.47 -3.66, 32 0 M0 32 C0.37 6.97, 12.58 4.23, 32 0" stroke="#1e1e1e" stroke-width="4" fill="none"></path></g></svg>