<?xml version="1.0" standalone="no"?>
<!DOCTYPE svg PUBLIC "-//W3C//DTD SVG 1.1//EN" "http://www.w3.org/Graphics/SVG/1.1/DTD/svg11.dtd">
<svg version="1.1" xmlns="http://www.w3.org/2000/svg" viewBox="0 0 407.98680846424213 489.8928239471618" width="1223.9604253927264" height="1469.6784718414854"><!-- svg-source:excalidraw --><metadata></metadata><defs><style class="style-fonts">
      </style></defs><rect x="0" y="0" width="407.98680846424213" height="489.8928239471618" fill="#ffffff"></rect><g stroke-linecap="round"><g transform="translate(78.21248650243706 136.2623141806563) rotate(0 -15.586794819438182 82.74595355956245)"><path d="M2.32 -2.51 C1.77 0.39, -1.27 7.49, -4.78 15.35 C-8.29 23.2, -15.18 31.77, -18.73 44.61 C-22.29 57.45, -23.65 74.63, -26.11 92.38 C-28.57 110.13, -33.21 139.28, -33.49 151.09 C-33.76 162.91, -28.71 160.67, -27.76 163.27 M0.14 2.29 C-0.46 5.71, -3.66 11.72, -5.87 17.96 C-8.08 24.2, -10.02 27.03, -13.1 39.75 C-16.19 52.47, -21.74 75.5, -24.38 94.3 C-27.02 113.1, -27.65 140.27, -28.93 152.55 C-30.21 164.84, -32.67 166.12, -32.06 168.01" stroke="#1e1e1e" stroke-width="4" fill="none"></path></g></g><mask></mask><g stroke-linecap="round"><g transform="translate(50.67204939587009 302.19344774772105) rotate(0 49.15973370550546 -3.9972678663931447)"><path d="M2.11 -1.87 C7.44 -0.78, 18.22 5.72, 34.28 3.99 C50.35 2.25, 88.35 -9.94, 98.51 -12.27 M-0.19 3.29 C5.79 3.76, 23.14 1.84, 39.48 -0.35 C55.82 -2.54, 88.56 -8.76, 97.85 -9.85" stroke="#1e1e1e" stroke-width="4" fill="none"></path></g></g><mask></mask><g stroke-linecap="round"><g transform="translate(145.41115304246068 291.45267727616) rotate(0 14.068475128652608 86.28107433673011)"><path d="M-2.21 1.23 C2.5 29.91, 25.46 141.65, 30.35 170.18 M1.79 -0.57 C6.12 28.65, 25.44 145.13, 29.26 173.13" stroke="#1e1e1e" stroke-width="4" fill="none"></path></g></g><mask></mask><g stroke-linecap="round"><g transform="translate(100.53846584801886 303.9349753882833) rotate(0 28.143558154849416 -3.0840041859531198)"><path d="M2.12 -1.26 C11.9 -2.45, 46.91 -4.54, 56.46 -5.93 M-0.18 4.23 C9.33 2.06, 43.81 -8.37, 53.61 -10.4" stroke="#1e1e1e" stroke-width="4" fill="none"></path></g></g><mask></mask><g stroke-linecap="round"><g transform="translate(156.11344790335806 296.2317531270053) rotate(0 -15.09326833475825 76.19669984942868)"><path d="M-1.13 1 C-2.99 10.3, -3.81 29.76, -9.09 54.56 C-14.37 79.37, -28.14 134.53, -32.82 149.82 M3.46 -0.93 C1.19 8.73, -4.14 31.04, -10.32 56.75 C-16.51 82.46, -29.04 138.22, -33.64 153.32" stroke="#1e1e1e" stroke-width="4" fill="none"></path></g></g><mask></mask><g stroke-linecap="round" transform="translate(115.43460227124615 451.9000238075936) rotate(51.499346279656464 10.206161986551251 4.920828100658639)"><path d="M12.45 -0.26 C14.52 0.18, 18.1 1.62, 19.51 2.55 C20.93 3.49, 21.21 4.42, 20.93 5.35 C20.65 6.28, 19.71 7.49, 17.82 8.13 C15.94 8.78, 12.05 9.08, 9.64 9.21 C7.23 9.33, 4.97 9.62, 3.38 8.9 C1.79 8.19, 0.43 5.88, 0.1 4.91 C-0.23 3.94, 0.32 3.92, 1.4 3.1 C2.48 2.28, 4.61 0.31, 6.57 -0.03 C8.53 -0.38, 12.04 0.83, 13.16 1.03 C14.29 1.23, 13.15 1.21, 13.3 1.18 M11.57 -1.15 C13.69 -1.41, 17.23 -0.31, 18.65 0.47 C20.07 1.24, 20.13 2.02, 20.09 3.47 C20.05 4.93, 19.7 8.3, 18.41 9.18 C17.12 10.06, 14.77 8.97, 12.35 8.75 C9.92 8.54, 5.68 8.34, 3.85 7.88 C2.03 7.42, 1.7 6.95, 1.4 5.97 C1.11 4.99, 1.62 3.02, 2.07 1.97 C2.53 0.93, 2.54 -0.13, 4.15 -0.3 C5.77 -0.46, 10.22 0.87, 11.76 1 C13.3 1.12, 13.22 0.48, 13.36 0.47" stroke="#1e1e1e" stroke-width="4" fill="none"></path></g><g stroke-linecap="round" transform="translate(171.22372673205155 464.20257887033574) rotate(35.88213724620906 10.526628066096237 5.363825328264625)"><path d="M6.57 0.73 C8.72 0.23, 11.54 -0.3, 13.77 -0.13 C15.99 0.04, 18.87 0.89, 19.94 1.76 C21.01 2.64, 20.59 3.89, 20.19 5.14 C19.8 6.38, 19.04 8.48, 17.58 9.24 C16.13 10.01, 13.6 9.53, 11.46 9.71 C9.32 9.89, 6.57 10.87, 4.75 10.32 C2.92 9.78, 1.24 7.52, 0.49 6.44 C-0.25 5.36, -0.86 4.79, 0.25 3.86 C1.37 2.92, 5.42 1.45, 7.18 0.84 C8.95 0.24, 10.59 0.23, 10.84 0.22 M14.45 -1.04 C16.56 -0.8, 18.03 -0.3, 19.18 1.08 C20.34 2.46, 21.58 6.01, 21.37 7.23 C21.17 8.44, 19.9 8, 17.94 8.37 C15.97 8.74, 11.8 9.34, 9.61 9.44 C7.41 9.54, 6.11 9.67, 4.78 8.96 C3.45 8.25, 2.39 6.38, 1.64 5.2 C0.89 4.02, -0.53 2.51, 0.26 1.86 C1.06 1.21, 3.89 1.5, 6.39 1.29 C8.88 1.07, 13.86 0.66, 15.23 0.57 C16.59 0.48, 15.1 0.81, 14.58 0.76" stroke="#1e1e1e" stroke-width="4" fill="none"></path></g><g stroke-linecap="round" transform="translate(40.61371475555188 30.725739162580112) rotate(0 61.965983489775226 56.802151532293976)"><path d="M32.62 6.82 C40.19 1.74, 52.51 -0.51, 61.62 -0.91 C70.72 -1.32, 79.06 0.36, 87.26 4.39 C95.46 8.42, 104.87 16.31, 110.82 23.26 C116.78 30.21, 121.3 37.27, 122.98 46.1 C124.67 54.93, 123.96 67.69, 120.92 76.22 C117.89 84.76, 112.04 91.19, 104.79 97.3 C97.54 103.4, 86.98 110.14, 77.42 112.88 C67.86 115.62, 56.39 115.78, 47.42 113.76 C38.46 111.74, 30.63 106.57, 23.65 100.77 C16.66 94.98, 9.2 87.25, 5.52 78.99 C1.83 70.72, 1.09 59.87, 1.53 51.19 C1.98 42.5, 3.06 34.46, 8.18 26.88 C13.31 19.29, 27.77 9.05, 32.29 5.65 C36.82 2.26, 34.35 5.49, 35.34 6.51 M24.68 11.4 C32.07 5.52, 43.97 0.45, 52.78 -1.37 C61.58 -3.2, 68.88 -2.75, 77.51 0.46 C86.14 3.67, 96.88 11.35, 104.55 17.89 C112.23 24.43, 120.21 31.52, 123.55 39.7 C126.89 47.89, 127.14 58.58, 124.6 66.98 C122.06 75.38, 114.23 83.27, 108.31 90.13 C102.39 96.98, 96.86 104.53, 89.08 108.11 C81.31 111.69, 70.99 111.68, 61.67 111.59 C52.36 111.51, 42.34 111.27, 33.18 107.63 C24.02 103.98, 12.07 97.45, 6.72 89.74 C1.37 82.03, 1.39 70.54, 1.07 61.36 C0.75 52.17, 1.5 43.04, 4.81 34.62 C8.13 26.2, 17.38 14.05, 20.98 10.83 C24.58 7.6, 24.95 13.97, 26.43 15.25" stroke="#1e1e1e" stroke-width="4" fill="none"></path></g><g stroke-linecap="round"><g transform="translate(68.29185404765394 166.22468972688864) rotate(0 78.91974022283603 24.4746472307325)"><path d="M-1.45 1.69 C2.23 6.92, 12.3 20.86, 19.56 28.62 C26.83 36.38, 36.25 45.98, 42.13 48.25 C48.01 50.53, 42.9 45.25, 54.86 42.29 C66.82 39.33, 102.67 32.63, 113.9 30.49 C125.13 28.35, 119.03 30.8, 122.23 29.44 C125.44 28.08, 127.79 23.89, 133.13 22.34 C138.48 20.79, 150.74 20.1, 154.33 20.12 C157.92 20.14, 155.78 21.26, 154.7 22.46 C153.61 23.66, 152.53 25.29, 147.8 27.33 C143.06 29.38, 130.14 33.61, 126.28 34.73 M2.96 0.14 C6.55 4.83, 11.48 17.26, 17.63 24.57 C23.78 31.89, 33.69 40.85, 39.87 44.03 C46.05 47.2, 41.68 45.86, 54.72 43.64 C67.76 41.42, 106.26 33.5, 118.1 30.7 C129.94 27.9, 123.26 28.71, 125.77 26.83 C128.27 24.94, 128.65 20.63, 133.14 19.41 C137.64 18.18, 148.43 18.24, 152.71 19.47 C156.99 20.7, 160.6 24.44, 158.82 26.79 C157.04 29.15, 147.16 33.17, 142.04 33.59 C136.92 34.02, 131.52 29.33, 128.09 29.33" stroke="#1e1e1e" stroke-width="4" fill="none"></path></g></g><mask></mask><g stroke-linecap="round"><g transform="translate(68.70496060425194 164.98537005709306) rotate(0 78.22565180834272 13.604921730634373)"><path d="M0.56 1.77 C11.47 5.88, 44.11 23.51, 64.02 26.36 C83.94 29.21, 104.19 20.88, 120.03 18.85 C135.86 16.82, 152.17 14.78, 159.03 14.17 M-2.58 0.26 C8.02 3.48, 41.32 19.25, 61.33 22.65 C81.35 26.06, 101.28 21.8, 117.5 20.7 C133.72 19.6, 151.92 16.86, 158.65 16.06" stroke="#1e1e1e" stroke-width="4" fill="none"></path></g></g><mask></mask><g stroke-linecap="round"><g transform="translate(227.64770825552569 180.5801425686866) rotate(0 19.285695044649856 4.915186603928021)"><path d="M-0.36 1.03 C2.33 0.87, 11.76 0.23, 16.37 -0.17 C20.98 -0.57, 23.7 -2.16, 27.33 -1.39 C30.96 -0.63, 36.86 2.36, 38.16 4.42 C39.47 6.47, 36.39 10.75, 35.16 10.93 C33.93 11.11, 33.7 6.56, 30.79 5.49 C27.89 4.43, 20.17 5.43, 17.73 4.55 C15.29 3.67, 16.4 0.64, 16.13 0.21 M1.66 0.52 C4.12 0.42, 10.43 0.99, 15.12 0.85 C19.82 0.7, 25.93 -1.14, 29.83 -0.37 C33.72 0.4, 37.34 3.49, 38.49 5.45 C39.64 7.42, 38.33 11.58, 36.73 11.42 C35.12 11.27, 31.97 5.35, 28.88 4.52 C25.78 3.69, 20.36 6.69, 18.14 6.43 C15.92 6.18, 16.09 3.89, 15.55 2.98" stroke="#1e1e1e" stroke-width="4" fill="none"></path></g></g><mask></mask><g stroke-linecap="round"><g transform="translate(14.888902894518651 12.32293867543342) rotate(0 -0.8496612043350069 232.62347329814747)"><path d="M-1.32 -2.32 C-2 74.72, -4.65 386.66, -4.89 464.66 M3.15 2.59 C3.46 81.22, 1.8 389.9, 0.55 467.57" stroke="#1e1e1e" stroke-width="4" fill="none"></path></g></g><mask></mask><g stroke-linecap="round"><g transform="translate(14.888902894518651 312.1536305253735) rotate(0 47.965710176164066 1.5550411867447451)"><path d="M-1.77 -1.32 C14.73 -0.98, 81.65 -0.59, 97.7 -0.3 M2.46 4.14 C18.74 5.14, 79.43 3.22, 95.67 3.17" stroke="#1e1e1e" stroke-width="4" fill="none"></path></g></g><mask></mask><g stroke-linecap="round"><g transform="translate(111.47755313938524 312.1536305253735) rotate(0 -1.1268735790531537 82.09250743127353)"><path d="M0.37 -0.3 C0.07 27.13, -3.63 136.01, -3.57 163.25 M-2.88 -2.93 C-2.2 25.14, 0.89 138.9, 1.32 167.12" stroke="#1e1e1e" stroke-width="4" fill="none"></path></g></g><mask></mask><g stroke-linecap="round"><g transform="translate(202.30918205800754 208.8858860525412) rotate(0 95.77357382538003 1.148361387401792)"><path d="M-2.78 0.45 C29.55 0.54, 161.89 0.68, 194.32 0.29 M0.91 -1.78 C32.96 -1.15, 161.47 3.75, 192.89 4.08" stroke="#1e1e1e" stroke-width="4" fill="none"></path></g></g><mask></mask><g stroke-linecap="round"><g transform="translate(394.9201140720588 209.91865244403732) rotate(0 -0.5015102575034689 7.719216742381377)"><path d="M0.63 0.12 C0.76 2.62, -0.48 12.71, -0.45 15.19 M-0.49 -0.86 C-0.46 1.76, -1.8 13.53, -1.63 16.29" stroke="#1e1e1e" stroke-width="4" fill="none"></path></g></g><mask></mask><g stroke-linecap="round"><g transform="translate(394.40373087630996 224.3773819249849) rotate(0 -93.59508717591689 0.28198385590064845)"><path d="M-1.05 -1.91 C-32.89 -2.36, -158.17 -3.01, -189.61 -2.41 M3.58 3.22 C-28.59 3.01, -158.44 0.93, -190.77 -0.09" stroke="#1e1e1e" stroke-width="4" fill="none"></path></g></g><mask></mask><g stroke-linecap="round"><g transform="translate(394.40373087630996 225.71997823393008) rotate(0 0.60203232459844 123.82700733037024)"><path d="M1.97 -2.41 C2.21 39.58, 0.92 208.1, 0.39 250.07 M-0.4 2.45 C-0.27 43.82, -0.39 205.64, -0.8 245.97" stroke="#1e1e1e" stroke-width="4" fill="none"></path></g></g><mask></mask><g stroke-linecap="round"><g transform="translate(252.39835204557585 224.3773819249849) rotate(0 -0.42386213295685593 127.08990339368404)"><path d="M1.94 1.69 C1.49 44.43, -0.29 211.85, -0.72 254.05 M-0.45 0.13 C-1.43 42.23, -2.49 207.9, -2.79 249.59" stroke="#1e1e1e" stroke-width="4" fill="none"></path></g></g><mask></mask><g stroke-linecap="round"><g transform="translate(352.67957923060476 51.40022691198499) rotate(0 -13.33731650292657 68.5134994307744)"><path d="M0.31 1.02 C-2.43 9.55, -9.06 35.11, -14.55 52.85 C-20.04 70.58, -28.78 93.81, -32.62 107.42 C-36.47 121.02, -38.62 130.75, -37.6 134.47 C-36.59 138.18, -31.92 139.98, -26.55 129.69 C-21.18 119.39, -11.34 91.53, -5.38 72.7 C0.58 53.87, 7.29 26.11, 9.21 16.69 M-2.96 -0.89 C-6.22 6.69, -11.24 30.46, -16.57 48.82 C-21.9 67.18, -31.61 94.79, -34.92 109.28 C-38.24 123.76, -38.64 132.43, -36.44 135.73 C-34.24 139.04, -26.08 139.84, -21.71 129.11 C-17.35 118.37, -15.73 89.32, -10.24 71.32 C-4.76 53.32, 7.61 29.22, 11.18 21.12" stroke="#1e1e1e" stroke-width="4" fill="none"></path></g></g><mask></mask><g stroke-linecap="round"><g transform="translate(361.0632122909865 69.99002195891751) rotate(0 -2.785627304253012 -9.79904668949115)"><path d="M0.17 0.78 C0.33 -1.77, 2.17 -11.31, 1.07 -14.84 C-0.04 -18.36, -5.09 -19.43, -6.47 -20.38 M-1.2 0.14 C-1.25 -2.33, 0.88 -10.52, -0.09 -13.82 C-1.05 -17.11, -5.82 -18.58, -6.99 -19.61" stroke="#1e1e1e" stroke-width="4" fill="none"></path></g></g><mask></mask><g stroke-linecap="round"><g transform="translate(245.80850803214435 193.47648186762638) rotate(0 32.4412304071343 -0.09412055211930692)"><path d="M-0.91 -2.3 C9.99 -3.07, 54.96 -2.68, 65.79 -2.81 M3.79 2.62 C14.38 1.95, 54.44 0.17, 64.14 -0.52" stroke="#1e1e1e" stroke-width="4" fill="none"></path></g></g><mask></mask><g stroke-linecap="round"><g transform="translate(310.184279768745 194.16499279529057) rotate(0 -1.8944978934741812 3.03323288599438)"><path d="M0.29 -0.67 C0.42 -0.11, 1.28 1.46, 0.52 2.7 C-0.23 3.93, -3.46 6.23, -4.26 6.73 M-0.47 0.63 C-0.44 1.3, 0.54 2.45, -0.15 3.27 C-0.85 4.09, -3.98 5.07, -4.62 5.54" stroke="#1e1e1e" stroke-width="4" fill="none"></path></g></g><mask></mask><g stroke-linecap="round"><g transform="translate(226.53020205754638 190.3781826931379) rotate(0 -7.437094180312215 6.361193165786233)"><path d="M-0.26 -1.19 C1.38 0.34, 9.03 5.95, 10.33 8.08 C11.64 10.21, 12.73 10.74, 7.58 11.58 C2.43 12.41, -15.11 13.6, -20.57 13.09 C-26.03 12.57, -24.48 9.33, -25.17 8.47 M1.8 0.8 C3.28 2.09, 8.7 4.46, 9.57 6.4 C10.44 8.35, 12.07 11.26, 7.01 12.47 C1.94 13.68, -15.27 14.29, -20.82 13.65 C-26.37 13.01, -25.38 9.21, -26.3 8.61" stroke="#1e1e1e" stroke-width="4" fill="none"></path></g></g><mask></mask><g stroke-linecap="round"><g transform="translate(326.8364083478218 101.32667110257398) rotate(0 -42.208730134610505 -6.7746242985214735)"><path d="M0.82 1.98 C-12.99 -0.14, -68.9 -12.53, -83.45 -15.53 M-2.19 0.59 C-16.23 -0.97, -72.12 -10.47, -85.23 -12.94" stroke="#1e1e1e" stroke-width="4" fill="none"></path></g></g><mask></mask><g stroke-linecap="round"><g transform="translate(319.4004903290488 128.5917038380751) rotate(0 -44.06690852938755 -0.8188565211420098)"><path d="M0.83 -1.9 C-14.13 -3.04, -74.62 -4.59, -88.96 -4.88 M-2.17 3.24 C-16.34 2.18, -69.75 -1.83, -83.76 -2.55" stroke="#1e1e1e" stroke-width="4" fill="none"></path></g></g><mask></mask></svg>